<?xml version="1.0" encoding="utf-8"?>
<!-- Generator: Adobe Illustrator 27.6.1, SVG Export Plug-In . SVG Version: 6.00 Build 0)  -->
<svg version="1.1" id="Layer_2_00000075140583073995696440000013476195067471743409_"
	 xmlns="http://www.w3.org/2000/svg" xmlns:xlink="http://www.w3.org/1999/xlink" x="0px" y="0px" viewBox="0 0 555 555"
	 style="enable-background:new 0 0 555 555;" xml:space="preserve">
<style type="text/css">
	.st0{display:none;fill:#BD202F;}
	.st1{fill:#9B9B9D;}
</style>
<rect y="0" class="st0" width="555" height="555"/>
<g id="Layer_1-2">
	<g>
		<path class="st1" d="M135.4,172.7c0-9.8,2.7-17.6,8.2-23c13.5-13.2,42.6-10.4,80,7.8c72.8,35.5,157.3,119,188.3,186
			c14.2,30.6,15.4,54,3.3,65.7c-13.5,13.2-42.6,10.4-80-7.8c-72.8-35.6-157.3-119-188.3-186C139.3,198.8,135.4,184.3,135.4,172.7z
			 M411.3,343.8l-0.7,0.3c-30.9-66.7-115-149.8-187.6-185.2c-36.7-17.9-65.2-20.9-78.3-8.1c-11.6,11.3-10.3,34,3.6,64
			c30.9,66.7,115.1,149.9,187.6,185.3c36.7,17.9,65.2,20.9,78.3,8.1c11.6-11.3,10.3-34-3.6-64C410.6,344.2,411.3,343.8,411.3,343.8z
			"/>
		<path class="st1" d="M133.4,165.7c0-11.5,3.3-20.4,9.9-26.1c15.4-13.5,47.2-8.6,87.2,13.6C306,195,389.6,285.4,416.8,354.9
			c12,30.5,11.6,53.4-1.2,64.6c-15.4,13.5-47.2,8.6-87.2-13.6c-75.5-41.8-159.1-132.2-186.3-201.7
			C136.3,189.4,133.4,176.4,133.4,165.7z M424,393.3c0-10.5-2.9-23.3-8.6-37.9C388.3,286.2,305,196.1,229.8,154.5
			c-39.4-21.8-70.6-26.8-85.4-13.8c-12.2,10.7-12.5,33-0.8,62.9c27.1,69.2,110.4,159.3,185.6,200.9c39.4,21.8,70.6,26.8,85.4,13.8
			C420.9,412.8,424,404.3,424,393.3z"/>
		<path class="st1" d="M132,159.2c0-13.5,4-23.8,11.9-29.9c17.5-13.6,51.9-6.4,94.5,20c77.8,48.2,159.7,145.6,182.6,217.2
			c9.7,30.2,7.6,52.7-5.9,63.2c-17.5,13.6-51.9,6.4-94.5-20C242.8,361.4,160.9,264,138,192.5C134,180,132,168.8,132,159.2z
			 M425.5,399.8c0-9.4-2-20.4-6-32.8c-22.8-71.3-104.5-168.3-182-216.4c-42-26-75.8-33.4-92.8-20.1c-12.9,10.1-14.8,32-5.3,61.5
			c22.8,71.3,104.5,168.3,182,216.4c42,26,75.8,33.4,92.8,20.1C421.7,422.6,425.5,412.7,425.5,399.8z"/>
		<path class="st1" d="M130.8,153.2c0-15.9,4.8-27.4,14.4-34.1c19.8-13.7,57-3.8,102,27.1c79.6,54.8,159.1,158.9,177.2,232.2
			c7.4,30.2,3.7,51.4-10.7,61.4c-19.8,13.7-57,3.8-102-27.1C232.1,358,152.6,253.8,134.6,180.5C132.1,170.3,130.8,161.2,130.8,153.2
			z M426.6,405.8c0-7.9-1.2-16.9-3.7-27c-17.9-73-97.2-176.8-176.5-231.4c-44.5-30.6-81-40.5-100.3-27.1
			c-13.9,9.6-17.3,30.2-10.1,59.8c17.9,73,97.2,176.8,176.5,231.4c44.5,30.6,81,40.5,100.3,27.1C422,432.3,426.7,421.1,426.6,405.8
			L426.6,405.8z"/>
		<path class="st1" d="M130.2,148.4c0-19,5.9-32.5,17.4-39.5c22.4-13.6,62.3-0.8,109.5,34.9c81,61.5,157.2,172.2,169.8,246.8
			l-0.7,0.1l0.7-0.1c5,29.6-0.4,50.1-15.7,59.3c-22.4,13.6-62.3,0.8-109.5-34.9c-81-61.5-157.2-172.2-169.8-246.8
			C130.8,161.1,130.2,154.5,130.2,148.4L130.2,148.4z M427.3,410.6c0-6-0.6-12.5-1.8-19.6c-12.6-74.3-88.4-184.6-169.2-245.9
			c-46-34.9-86.2-47.9-107.8-34.9c-14.7,8.9-19.8,28.8-14.9,57.7c12.6,74.3,88.4,184.6,169.2,245.9c46,34.9,86.2,47.9,107.8,34.9
			C421.6,442,427.3,429,427.3,410.6L427.3,410.6z"/>
		<path class="st1" d="M129.9,145.1c0-22.9,7.3-38.8,21.3-46.1c25-13,68.6,3.2,116.9,43.5C350,210.8,422,327.8,428.6,403.2
			c2.5,28.8-4.7,48.5-20.8,56.9c-25,13-68.6-3.2-116.9-43.5C209,348.3,137,231.3,130.4,155.9C130.1,152.1,129.9,148.5,129.9,145.1z
			 M427.8,403.2h-0.7c-6.5-75-78.3-191.5-160-259.6c-47.8-39.8-90.8-56-115.2-43.3c-15.5,8.1-22.4,27.2-20,55.4
			c6.5,75.1,78.3,191.6,160,259.7c47.8,39.8,90.8,56,115.2,43.3c15.5-8.1,22.4-27.2,20-55.4L427.8,403.2L427.8,403.2z"/>
		<path class="st1" d="M129.8,143.3L129.8,143.3c0-27.9,9-46.6,26.1-54.2c28.1-12.3,74.5,7.4,124.1,52.8
			c82.2,75.2,149.1,198,149.1,273.7l0,0c0,27.9-9,46.6-26.1,54.2c-28.1,12.3-74.5-7.4-124.1-52.8
			C196.7,341.8,129.8,219.1,129.8,143.3z M427.6,415.6c0-75.4-66.7-197.6-148.6-272.6c-49.2-45-95-64.6-122.5-52.5
			c-16.4,7.3-25.2,25.5-25.2,52.7l0,0c0,75.4,66.7,197.6,148.6,272.6c49.2,45,95,64.6,122.5,52.5
			C418.9,461.1,427.5,442.9,427.6,415.6L427.6,415.6L427.6,415.6z"/>
		<path class="st1" d="M129.8,143.4c0-4.4,0.2-8.6,0.6-12.7c2.5-26.9,13.5-44.6,31.6-51c31.5-11.3,80.5,12.1,131,62.8
			c81.9,82.1,142.7,210.3,135.5,285.7c-2.5,26.9-13.5,44.6-31.6,51c-31.5,11.3-80.5-12.1-131-62.8
			C188.4,338.8,129.8,219.9,129.8,143.4L129.8,143.4z M427.6,415.5c0-76.1-58.4-194.5-135.7-271.9c-50-50.3-98.4-73.6-129.4-62.4
			c-17.5,6.3-28.1,23.5-30.7,49.7c-7.2,75,53.4,202.7,135.1,284.5c50.1,50.2,98.5,73.5,129.4,62.4c17.5-6.3,28.1-23.5,30.7-49.7
			C427.4,424,427.6,419.8,427.6,415.5z"/>
		<path class="st1" d="M129.7,145.6c0-9.8,0.8-18.9,2.5-27.3c5.2-25.8,18.2-42.3,37.5-47.7c35.2-9.8,86.6,17.7,137.4,73.5
			c80.9,88.9,134.6,222,119.6,296.5c-5.2,25.8-18.2,42.3-37.5,47.7c-35.2,9.8-86.6-17.7-137.4-73.5
			C180.1,335.9,129.7,222.3,129.7,145.6z M427.7,413.3c0-76.3-50.2-189.4-121.8-268.1c-50.4-55.4-101.2-82.7-135.8-73.1
			c-18.8,5.2-31.4,21.3-36.4,46.5c-1.7,8.4-2.5,17.4-2.5,27.1c0,76.3,50.2,189.4,121.8,268.1c50.4,55.4,101.2,82.7,135.8,73.1
			c18.8-5.2,31.4-21.3,36.4-46.5C426.9,432,427.7,422.9,427.7,413.3z"/>
		<path class="st1" d="M129.3,150.2c0-16.3,2-31.3,6.1-44.2c7.9-24.7,23-39.9,43.8-44c39.2-7.6,92.6,24.2,142.9,85
			c79.2,95.7,124.8,232.8,101.5,305.8c-7.9,24.7-23,39.9-43.8,44c-39.2,7.6-92.6-24.2-142.9-85C171.7,333.1,129.3,226.2,129.3,150.2
			z M428.2,408.5c0-75.6-42.3-182.1-107.3-260.6C270.9,87.6,218,56,179.4,63.5c-20.2,3.9-35,18.8-42.6,43
			C113.7,179,159.1,315.6,238,410.9c50,60.4,102.9,91.9,141.5,84.5c20.2-3.9,35-18.8,42.6-43C426.3,439.6,428.2,424.8,428.2,408.5
			L428.2,408.5z"/>
		<path class="st1" d="M128.3,157.7c0-24.4,3.7-46.1,11.7-63.5c10.7-23.7,28.3-37.5,50.7-39.9c43.2-4.7,98.4,31.5,147.5,97
			c76.7,102.2,113,242.9,80.9,313.5c-10.7,23.7-28.3,37.5-50.7,39.9c-43.2,4.7-98.4-31.5-147.5-97
			C163.1,330.8,128.2,232,128.3,157.7L128.3,157.7z M429.3,401.1c0-73.9-34.8-172.3-92.3-249C288.2,87.1,233.6,51,190.9,55.7
			c-21.9,2.4-39,15.9-49.5,39c-31.9,70.2,4.4,210.2,80.8,312c48.8,65,103.4,101.1,146.1,96.4c21.9-2.4,39-15.9,49.5-39
			C425.6,446.8,429.3,425.3,429.3,401.1z"/>
		<path class="st1" d="M126.2,168.1c0-33.9,6.3-63.6,19.7-85.4c13.8-22.6,34-34.8,58.4-35.3c47.3-1,103.5,39.8,150.6,109.5
			c73.4,108.5,99.4,251.8,57.9,319.5c-13.8,22.6-34,34.8-58.4,35.3c-47.3,1-103.5-39.8-150.6-109.5
			C154.2,328.6,126.2,239.2,126.2,168.1z M431.2,390.8c0-70.8-27.9-159.9-77.5-233.1C307,88.5,251.1,47.8,204.4,48.9
			c-23.9,0.5-43.6,12.5-57.2,34.6C106,150.7,132,293.2,205.1,401.3c46.8,69.2,102.6,109.8,149.4,108.8c23.9-0.5,43.6-12.5,57.2-34.6
			C424.9,453.8,431.2,424.4,431.2,390.8z"/>
		<path class="st1" d="M123,181.2c0-44.8,10-83.7,30.7-109.5c17.2-21.4,40.5-31.8,67.2-30c51,3.4,107.9,49.1,152,122.1
			c69.2,114.5,83.8,259.5,32.5,323.3c-17.2,21.4-40.5,31.8-67.2,30c-51-3.4-107.9-49.1-152-122.1C144.8,326.8,123,247.6,123,181.2z
			 M434.5,377.7c0-66-21.8-144.9-63-213.1C327.7,92,271.3,46.7,220.7,43.3c-26.2-1.8-49,8.4-65.9,29.5
			c-50.9,63.3-36.3,207.6,32.6,321.6c43.9,72.6,100.3,118,150.8,121.4c26.2,1.8,49-8.4,65.9-29.5
			C424.6,460.8,434.5,422.2,434.5,377.7z"/>
		<path class="st1" d="M118.1,196.5c0-56.9,14.9-106.2,44.9-135c21.1-20.2,47.8-28.4,77.2-23.8c54.4,8.7,110.9,59,151.3,134.6
			c64.1,120.1,66.1,265.9,4.6,324.9c-21.1,20.2-47.8,28.4-77.2,23.8c-54.4-8.7-110.9-59-151.3-134.6
			C134.6,324.9,118.1,256.4,118.1,196.5L118.1,196.5z M439.5,362.4c0-59.7-16.5-127.9-49.3-189.3C350,97.9,293.8,47.8,239.9,39.2
			c-28.9-4.6-55.2,3.5-75.9,23.3c-61.2,58.6-59,203.6,4.8,323.2C209,461,265.1,511,319,519.6c28.9,4.6,55.2-3.5,75.9-23.3
			C424.7,467.8,439.4,418.9,439.5,362.4L439.5,362.4z"/>
		<path class="st1" d="M111.2,213.1c0-69.7,21.5-130.3,62.8-160.9c25.6-18.9,56.2-24.5,88.7-16.2c57,14.5,112.3,69.3,148.1,146.5
			c58,125.3,46.4,270.7-25.8,324.2l0,0c-25.6,18.9-56.2,24.5-88.7,16.2c-57-14.5-112.3-69.3-148.1-146.5
			C123.3,322.7,111.2,265.3,111.2,213.1L111.2,213.1z M446.3,346c0-52-12-109.3-36.8-162.8c-35.6-76.8-90.6-131.3-147.1-145.7
			c-32-8.2-62.3-2.6-87.4,16c-71.7,53.1-83.2,197.6-25.4,322.3c35.6,76.8,90.6,131.3,147.1,145.7c32,8.2,62.3,2.6,87.4-16
			C425,475.2,446.3,415.1,446.3,346L446.3,346z"/>
		<path class="st1" d="M102.2,229.6c0-82.7,30.1-155,84.7-185.7c30.7-17.3,65.9-19.7,101.7-7c58.5,20.8,111.7,79.7,142.2,157.4
			c51,129.9,24.6,273.7-58.7,320.7c-30.7,17.3-65.9,19.7-101.7,7c-58.5-20.8-111.7-79.7-142.2-157.4
			C110.6,319.7,102.2,273.1,102.2,229.6L102.2,229.6z M455.3,329.4c0-43.5-8.4-89.8-25.9-134.6C398.9,117.5,346.1,58.9,288,38.3
			c-35.4-12.6-70.1-10.2-100.4,6.8c-82.7,46.6-108.8,189.7-58,318.9c30.3,77.3,83.2,135.9,141.3,156.6
			c35.4,12.6,70.1,10.2,100.4-6.8l0,0C425.4,483.2,455.2,411.5,455.3,329.4L455.3,329.4z"/>
		<path class="st1" d="M90.9,244.9c0-95.5,41.2-179.2,110.7-208.2c36.7-15.3,76.9-13.8,116.2,4.4c58.8,27.2,108.8,89.5,133.5,166.8
			c42.9,133.8,0.8,274.9-93.9,314.4c-36.7,15.3-76.9,13.8-116.2-4.4c-58.8-27.2-108.8-89.5-133.5-166.8
			C96.2,315.5,90.8,279.5,90.9,244.9L90.9,244.9z M466.6,314.1c0-34.4-5.4-70.3-16.8-105.8c-24.6-76.9-74.3-138.9-132.7-165.9
			c-38.9-17.9-78.7-19.5-115-4.3C133.2,66.9,92.4,150,92.4,244.9c0,34.4,5.4,70.3,16.8,105.8c24.6,76.9,74.3,138.9,132.7,165.9
			c38.9,17.9,78.7,19.5,115,4.3C425.8,492.1,466.6,409,466.6,314.1z"/>
		<path class="st1" d="M77.2,258c0-107.7,55-202.1,141-227.2c43.6-12.8,89.2-6.5,131.9,18.1c58.7,33.8,103.2,97.3,122.2,174.1
			c33.8,137.1-25.2,274-131.5,305c-43.6,12.8-89.2,6.5-131.9-18.1c-58.7-33.8-103.2-97.3-122.2-174.1
			C80.3,309.7,77.2,283.5,77.2,258z M480.3,300.9c0-25.3-3.1-51.4-9.5-77.5c-18.9-76.5-63.1-139.6-121.4-173.2
			C307,25.9,261.7,19.6,218.6,32.3C133.3,57.2,78.7,151,78.7,258c0,25.3,3.1,51.4,9.5,77.5c18.9,76.5,63.1,139.6,121.4,173.2
			c42.4,24.4,87.6,30.6,130.8,17.9C425.7,501.8,480.3,408,480.3,300.9z"/>
		<path class="st1" d="M61.2,268.4c0-119.4,71.8-222.9,175.4-242c50.6-9.3,103.4,2.9,148.5,34.5c56.2,39.4,95.8,104.7,108.4,179.2
			c23.6,139.5-53.2,270.7-171.2,292.4c-50.6,9.3-103.4-2.9-148.5-34.5C117.6,458.6,78,393.3,65.4,318.8
			C62.6,301.8,61.2,284.9,61.2,268.4z M496.3,290.6c0-16.5-1.4-33.3-4.3-50.2c-12.6-74.1-51.8-139-107.7-178.2
			C339.5,30.9,287.2,18.7,237,28C134.1,46.9,62.7,149.7,62.7,268.4c0,16.5,1.4,33.3,4.3,50.2c12.6,74.1,51.8,139,107.7,178.2
			c44.8,31.3,97.1,43.5,147.3,34.2l0,0C424.9,512.1,496.3,409.2,496.3,290.6z"/>
		<path class="st1" d="M43,275.6c0-130.7,91.9-241.2,214.1-251.9c129.8-11.4,245.4,94.2,257.8,235.2c6,68.3-12.9,134.7-53.1,186.9
			s-97,84-159.9,89.5s-124.3-15.9-173.1-60.4C80.1,430.5,50,368.4,44,300.1C43.3,291.9,42.9,283.7,43,275.6L43,275.6z M514.4,283.7
			c0-8.1-0.4-16.4-1.1-24.6C501.1,118.8,386.2,13.9,257.2,25.2C135.8,35.8,44.5,145.7,44.5,275.6c0,8,0.4,16.2,1.1,24.4
			c6,68,35.8,129.7,84.2,173.8s109.4,65.5,171.9,60s118.9-37,158.8-88.9C495.6,399.3,514.4,342.8,514.4,283.7L514.4,283.7z"/>
		<path class="st1" d="M22.7,279.5c0-141.6,115.2-256.8,256.8-256.8s256.8,115.2,256.8,256.8S421.1,536.3,279.5,536.3
			S22.7,421.1,22.7,279.5z M534.8,279.5c0-140.7-114.5-255.3-255.3-255.3S24.2,138.7,24.2,279.5s114.5,255.3,255.3,255.3
			S534.8,420.2,534.8,279.5z"/>
	</g>
</g>
</svg>
