<svg id="Layer_2" data-name="Layer 2" xmlns="http://www.w3.org/2000/svg" viewBox="0 0 99 99" width="55" height="55">
    <defs>
        <style>
            @-webkit-keyframes animate-svg-fill-1{0%{fill:transparent}100%{fill:rgb(255,255,255)}}@keyframes animate-svg-fill-1{0%{fill:transparent}100%{fill:rgb(255,255,255)}}.svg-elem-1{-webkit-animation:animate-svg-fill-1 0.7s cubic-bezier(0.47,0,0.745,0.715) 0.8s both;animation:animate-svg-fill-1 0.7s cubic-bezier(0.47,0,0.745,0.715) 0.8s both}@-webkit-keyframes animate-svg-fill-2{0%{fill:transparent}100%{fill:rgb(255,255,255)}}@keyframes animate-svg-fill-2{0%{fill:transparent}100%{fill:rgb(255,255,255)}}.svg-elem-2{-webkit-animation:animate-svg-fill-2 0.7s cubic-bezier(0.47,0,0.745,0.715) 0.9s both;animation:animate-svg-fill-2 0.7s cubic-bezier(0.47,0,0.745,0.715) 0.9s both}@-webkit-keyframes animate-svg-fill-3{0%{fill:transparent}100%{fill:rgb(255,255,255)}}@keyframes animate-svg-fill-3{0%{fill:transparent}100%{fill:rgb(255,255,255)}}.svg-elem-3{-webkit-animation:animate-svg-fill-3 0.7s cubic-bezier(0.47,0,0.745,0.715) 1s both;animation:animate-svg-fill-3 0.7s cubic-bezier(0.47,0,0.745,0.715) 1s both}@-webkit-keyframes animate-svg-fill-4{0%{fill:transparent}100%{fill:rgb(255,255,255)}}@keyframes animate-svg-fill-4{0%{fill:transparent}100%{fill:rgb(255,255,255)}}.svg-elem-4{-webkit-animation:animate-svg-fill-4 0.7s cubic-bezier(0.47,0,0.745,0.715) 1.1s both;animation:animate-svg-fill-4 0.7s cubic-bezier(0.47,0,0.745,0.715) 1.1s both}@-webkit-keyframes animate-svg-fill-5{0%{fill:transparent}100%{fill:rgb(255,255,255)}}@keyframes animate-svg-fill-5{0%{fill:transparent}100%{fill:rgb(255,255,255)}}.svg-elem-5{-webkit-animation:animate-svg-fill-5 0.7s cubic-bezier(0.47,0,0.745,0.715) 1.2000000000000002s both;animation:animate-svg-fill-5 0.7s cubic-bezier(0.47,0,0.745,0.715) 1.2000000000000002s both}@-webkit-keyframes animate-svg-fill-6{0%{fill:transparent}100%{fill:rgb(255,255,255)}}@keyframes animate-svg-fill-6{0%{fill:transparent}100%{fill:rgb(255,255,255)}}.svg-elem-6{-webkit-animation:animate-svg-fill-6 0.7s cubic-bezier(0.47,0,0.745,0.715) 1.3s both;animation:animate-svg-fill-6 0.7s cubic-bezier(0.47,0,0.745,0.715) 1.3s both}@-webkit-keyframes animate-svg-fill-7{0%{fill:transparent}100%{fill:rgb(255,255,255)}}@keyframes animate-svg-fill-7{0%{fill:transparent}100%{fill:rgb(255,255,255)}}.svg-elem-7{-webkit-animation:animate-svg-fill-7 0.7s cubic-bezier(0.47,0,0.745,0.715) 1.4000000000000001s both;animation:animate-svg-fill-7 0.7s cubic-bezier(0.47,0,0.745,0.715) 1.4000000000000001s both}@-webkit-keyframes animate-svg-fill-8{0%{fill:transparent}100%{fill:rgb(255,255,255)}}@keyframes animate-svg-fill-8{0%{fill:transparent}100%{fill:rgb(255,255,255)}}.svg-elem-8{-webkit-animation:animate-svg-fill-8 0.7s cubic-bezier(0.47,0,0.745,0.715) 1.5s both;animation:animate-svg-fill-8 0.7s cubic-bezier(0.47,0,0.745,0.715) 1.5s both}@-webkit-keyframes animate-svg-fill-9{0%{fill:transparent}100%{fill:rgb(255,255,255)}}@keyframes animate-svg-fill-9{0%{fill:transparent}100%{fill:rgb(255,255,255)}}.svg-elem-9{-webkit-animation:animate-svg-fill-9 0.7s cubic-bezier(0.47,0,0.745,0.715) 1.6s both;animation:animate-svg-fill-9 0.7s cubic-bezier(0.47,0,0.745,0.715) 1.6s both}@-webkit-keyframes animate-svg-fill-10{0%{fill:transparent}100%{fill:rgb(255,255,255)}}@keyframes animate-svg-fill-10{0%{fill:transparent}100%{fill:rgb(255,255,255)}}.svg-elem-10{-webkit-animation:animate-svg-fill-10 0.7s cubic-bezier(0.47,0,0.745,0.715) 1.7000000000000002s both;animation:animate-svg-fill-10 0.7s cubic-bezier(0.47,0,0.745,0.715) 1.7000000000000002s both}@-webkit-keyframes animate-svg-fill-11{0%{fill:transparent}100%{fill:rgb(255,255,255)}}@keyframes animate-svg-fill-11{0%{fill:transparent}100%{fill:rgb(255,255,255)}}.svg-elem-11{-webkit-animation:animate-svg-fill-11 0.7s cubic-bezier(0.47,0,0.745,0.715) 1.8s both;animation:animate-svg-fill-11 0.7s cubic-bezier(0.47,0,0.745,0.715) 1.8s both}@-webkit-keyframes animate-svg-fill-12{0%{fill:transparent}100%{fill:rgb(255,255,255)}}@keyframes animate-svg-fill-12{0%{fill:transparent}100%{fill:rgb(255,255,255)}}.svg-elem-12{-webkit-animation:animate-svg-fill-12 0.7s cubic-bezier(0.47,0,0.745,0.715) 1.9000000000000001s both;animation:animate-svg-fill-12 0.7s cubic-bezier(0.47,0,0.745,0.715) 1.9000000000000001s both}@-webkit-keyframes animate-svg-fill-13{0%{fill:transparent}100%{fill:rgb(255,255,255)}}@keyframes animate-svg-fill-13{0%{fill:transparent}100%{fill:rgb(255,255,255)}}.svg-elem-13{-webkit-animation:animate-svg-fill-13 0.7s cubic-bezier(0.47,0,0.745,0.715) 2s both;animation:animate-svg-fill-13 0.7s cubic-bezier(0.47,0,0.745,0.715) 2s both}@-webkit-keyframes animate-svg-fill-14{0%{fill:transparent}100%{fill:rgb(255,255,255)}}@keyframes animate-svg-fill-14{0%{fill:transparent}100%{fill:rgb(255,255,255)}}.svg-elem-14{-webkit-animation:animate-svg-fill-14 0.7s cubic-bezier(0.47,0,0.745,0.715) 2.1s both;animation:animate-svg-fill-14 0.7s cubic-bezier(0.47,0,0.745,0.715) 2.1s both}@-webkit-keyframes animate-svg-fill-15{0%{fill:transparent}100%{fill:rgb(255,255,255)}}@keyframes animate-svg-fill-15{0%{fill:transparent}100%{fill:rgb(255,255,255)}}.svg-elem-15{-webkit-animation:animate-svg-fill-15 0.7s cubic-bezier(0.47,0,0.745,0.715) 2.2s both;animation:animate-svg-fill-15 0.7s cubic-bezier(0.47,0,0.745,0.715) 2.2s both}@-webkit-keyframes animate-svg-fill-16{0%{fill:transparent}100%{fill:rgb(255,255,255)}}@keyframes animate-svg-fill-16{0%{fill:transparent}100%{fill:rgb(255,255,255)}}.svg-elem-16{-webkit-animation:animate-svg-fill-16 0.7s cubic-bezier(0.47,0,0.745,0.715) 2.3s both;animation:animate-svg-fill-16 0.7s cubic-bezier(0.47,0,0.745,0.715) 2.3s both}@-webkit-keyframes animate-svg-fill-17{0%{fill:transparent}100%{fill:rgb(255,255,255)}}@keyframes animate-svg-fill-17{0%{fill:transparent}100%{fill:rgb(255,255,255)}}.svg-elem-17{-webkit-animation:animate-svg-fill-17 0.7s cubic-bezier(0.47,0,0.745,0.715) 2.4000000000000004s both;animation:animate-svg-fill-17 0.7s cubic-bezier(0.47,0,0.745,0.715) 2.4000000000000004s both}@-webkit-keyframes animate-svg-fill-18{0%{fill:transparent}100%{fill:rgb(255,255,255)}}@keyframes animate-svg-fill-18{0%{fill:transparent}100%{fill:rgb(255,255,255)}}.svg-elem-18{-webkit-animation:animate-svg-fill-18 0.7s cubic-bezier(0.47,0,0.745,0.715) 2.5s both;animation:animate-svg-fill-18 0.7s cubic-bezier(0.47,0,0.745,0.715) 2.5s both}@-webkit-keyframes animate-svg-fill-19{0%{fill:transparent}100%{fill:rgb(255,255,255)}}@keyframes animate-svg-fill-19{0%{fill:transparent}100%{fill:rgb(255,255,255)}}.svg-elem-19{-webkit-animation:animate-svg-fill-19 0.7s cubic-bezier(0.47,0,0.745,0.715) 2.6s both;animation:animate-svg-fill-19 0.7s cubic-bezier(0.47,0,0.745,0.715) 2.6s both}@-webkit-keyframes animate-svg-fill-20{0%{fill:transparent}100%{fill:rgb(255,255,255)}}@keyframes animate-svg-fill-20{0%{fill:transparent}100%{fill:rgb(255,255,255)}}.svg-elem-20{-webkit-animation:animate-svg-fill-20 0.7s cubic-bezier(0.47,0,0.745,0.715) 2.7s both;animation:animate-svg-fill-20 0.7s cubic-bezier(0.47,0,0.745,0.715) 2.7s both}@-webkit-keyframes animate-svg-fill-21{0%{fill:transparent}100%{fill:rgb(255,255,255)}}@keyframes animate-svg-fill-21{0%{fill:transparent}100%{fill:rgb(255,255,255)}}.svg-elem-21{-webkit-animation:animate-svg-fill-21 0.7s cubic-bezier(0.47,0,0.745,0.715) 2.8s both;animation:animate-svg-fill-21 0.7s cubic-bezier(0.47,0,0.745,0.715) 2.8s both}
            .cls-1 {
            fill: #ffffff;
            }
        </style>
    </defs>
    <g id="Layer_1-2" data-name="Layer 1">
        <g>
            <path class="cls-1 svg-elem-1" d="m21.73,28.92c0-1.89.53-3.4,1.59-4.44,2.61-2.55,8.22-2,15.42,1.51,14.04,6.85,30.32,22.94,36.3,35.86,2.73,5.9,2.96,10.4.64,12.67-2.61,2.55-8.22,2-15.42-1.51-14.04-6.86-30.32-22.94-36.3-35.86-1.48-3.2-2.23-5.99-2.23-8.23Zm53.18,32.99l-.13.06c-5.96-12.86-22.18-28.89-36.17-35.72-7.07-3.46-12.57-4.03-15.09-1.56-2.23,2.18-1.98,6.56.7,12.34,5.96,12.86,22.18,28.89,36.17,35.72,7.07,3.46,12.57,4.03,15.09,1.56,2.23-2.18,1.98-6.56-.7-12.34l.13-.06Z"></path>
            <path class="cls-1 svg-elem-2" d="m21.35,27.56c0-2.21.64-3.93,1.9-5.04,2.97-2.6,9.09-1.65,16.81,2.62,14.55,8.05,30.66,25.49,35.91,38.88,2.31,5.88,2.23,10.3-.23,12.46-2.97,2.6-9.09,1.65-16.81-2.62-14.55-8.05-30.66-25.49-35.91-38.88-1.12-2.84-1.67-5.35-1.67-7.42Zm56.01,43.88c0-2.03-.55-4.5-1.66-7.31-5.23-13.33-21.28-30.71-35.78-38.73-7.6-4.21-13.6-5.17-16.47-2.66-2.36,2.07-2.41,6.37-.15,12.13,5.23,13.33,21.28,30.71,35.78,38.73,7.6,4.21,13.6,5.17,16.47,2.66,1.21-1.06,1.81-2.7,1.81-4.82Z"></path>
            <path class="cls-1 svg-elem-3" d="m21.07,26.32c0-2.6.77-4.58,2.29-5.77,3.37-2.63,10.01-1.23,18.22,3.86,14.99,9.29,30.78,28.07,35.2,41.86,1.87,5.83,1.47,10.15-1.13,12.18-3.37,2.63-10.01,1.23-18.22-3.86-14.99-9.29-30.78-28.07-35.2-41.86-.77-2.41-1.16-4.57-1.16-6.41Zm56.58,46.37c0-1.81-.38-3.94-1.15-6.33-4.4-13.74-20.14-32.45-35.08-41.71-8.1-5.02-14.62-6.43-17.89-3.88-2.49,1.95-2.86,6.16-1.03,11.86,4.4,13.74,20.14,32.45,35.08,41.71,8.1,5.02,14.62,6.43,17.89,3.88,1.45-1.13,2.18-3.03,2.18-5.53Z"></path>
            <path class="cls-1 svg-elem-4" d="m20.85,25.15c0-3.06.93-5.29,2.78-6.57,3.82-2.64,10.99-.74,19.66,5.23,15.35,10.56,30.67,30.64,34.15,44.77,1.43,5.82.72,9.91-2.06,11.84-3.82,2.64-10.99.74-19.66-5.23-15.35-10.56-30.67-30.64-34.15-44.77-.48-1.96-.72-3.72-.72-5.27Zm57.02,48.7c0-1.52-.24-3.26-.71-5.2-3.46-14.07-18.73-34.08-34.03-44.6-8.57-5.89-15.61-7.8-19.33-5.23-2.67,1.85-3.34,5.83-1.94,11.53,3.46,14.07,18.73,34.08,34.03,44.6,8.57,5.89,15.61,7.8,19.33,5.23,1.76-1.22,2.66-3.37,2.66-6.33Z"></path>
            <path class="cls-1 svg-elem-5" d="m20.73,24.24c0-3.66,1.14-6.26,3.36-7.61,4.32-2.62,12.01-.16,21.1,6.73,15.62,11.86,30.31,33.2,32.73,47.58l-.14.02.14-.02c.96,5.7-.08,9.65-3.02,11.43-4.32,2.62-12.01.16-21.1-6.73-15.62-11.86-30.31-33.2-32.73-47.58-.23-1.38-.35-2.65-.35-3.82Zm57.26,50.53c0-1.15-.11-2.41-.34-3.77-2.42-14.32-17.05-35.58-32.62-47.4-8.86-6.72-16.62-9.23-20.78-6.72-2.83,1.71-3.82,5.56-2.88,11.13,2.42,14.32,17.05,35.58,32.62,47.4,8.86,6.72,16.62,9.23,20.78,6.72,2.13-1.29,3.23-3.81,3.23-7.36Z"></path>
            <path class="cls-1 svg-elem-6" d="m20.67,23.59c0-4.42,1.4-7.47,4.1-8.88,4.81-2.51,13.23.62,22.53,8.38,15.79,13.17,29.67,35.72,30.94,50.26.48,5.55-.9,9.34-4.01,10.96-4.81,2.51-13.23-.62-22.53-8.38-15.79-13.17-29.67-35.72-30.94-50.26-.06-.72-.09-1.41-.09-2.08Zm57.42,49.77h-.14c-1.26-14.46-15.1-36.91-30.84-50.05-9.21-7.68-17.51-10.8-22.21-8.35-2.99,1.56-4.32,5.25-3.85,10.68,1.26,14.47,15.1,36.93,30.84,50.06,9.21,7.68,17.51,10.8,22.21,8.35,2.99-1.56,4.32-5.25,3.85-10.68h.14Z"></path>
            <path class="cls-1 svg-elem-7" d="m20.65,23.26h0c0-5.38,1.74-8.99,5.03-10.44,5.41-2.38,14.36,1.42,23.92,10.17,15.85,14.5,28.74,38.16,28.74,52.76h0c0,5.38-1.74,8.99-5.03,10.44-5.41,2.38-14.36-1.42-23.92-10.17-15.85-14.5-28.74-38.16-28.74-52.76Zm57.4,52.49c0-14.53-12.85-38.09-28.65-52.54-9.48-8.67-18.31-12.45-23.61-10.12-3.17,1.4-4.85,4.91-4.86,10.16h0c0,14.53,12.85,38.1,28.65,52.55,9.48,8.67,18.31,12.45,23.61,10.12,3.18-1.4,4.85-4.91,4.86-10.16h0Z"></path>
            <path class="cls-1 svg-elem-8" d="m20.65,23.27c0-.84.04-1.65.11-2.44.49-5.18,2.6-8.59,6.1-9.84,6.07-2.18,15.51,2.34,25.25,12.1,15.79,15.83,27.51,40.53,26.12,55.07-.49,5.18-2.6,8.59-6.1,9.84-6.07,2.18-15.51-2.34-25.25-12.1-14.94-14.97-26.23-37.89-26.23-52.64Zm57.41,52.45c0-14.67-11.26-37.5-26.15-52.42-9.65-9.68-18.98-14.17-24.95-12.03-3.38,1.21-5.42,4.53-5.91,9.59-1.38,14.46,10.3,39.07,26.04,54.84,9.65,9.68,18.98,14.17,24.95,12.03,3.38-1.21,5.42-4.53,5.91-9.59.07-.78.11-1.59.11-2.42Z"></path>
            <path class="cls-1 svg-elem-9" d="m20.63,23.69c0-1.88.16-3.64.48-5.26,1-4.98,3.5-8.16,7.23-9.19,6.79-1.88,16.69,3.42,26.48,14.17,15.6,17.14,25.95,42.78,23.07,57.15-1,4.98-3.5,8.16-7.23,9.19-6.79,1.88-16.69-3.42-26.48-14.17-13.84-15.21-23.55-37.11-23.55-51.89Zm57.45,51.6c0-14.7-9.68-36.51-23.48-51.68-9.71-10.67-19.5-15.94-26.18-14.09-3.62,1-6.05,4.1-7.02,8.97-.32,1.61-.48,3.36-.48,5.22,0,14.7,9.68,36.51,23.48,51.68,9.71,10.67,19.5,15.94,26.18,14.09,3.62-1,6.05-4.1,7.02-8.97.32-1.61.48-3.36.48-5.22Z"></path>
            <path class="cls-1 svg-elem-10" d="m20.55,24.59c0-3.15.38-6.03,1.17-8.52,1.52-4.77,4.44-7.7,8.44-8.48,7.55-1.46,17.85,4.66,27.55,16.38,15.27,18.44,24.05,44.88,19.57,58.95-1.52,4.77-4.44,7.7-8.44,8.48-7.55,1.46-17.85-4.66-27.55-16.38-12.57-15.18-20.74-35.78-20.74-50.43Zm57.62,49.79c0-14.58-8.15-35.1-20.68-50.23C47.85,12.52,37.66,6.44,30.22,7.88c-3.89.76-6.74,3.62-8.22,8.28-4.45,13.98,4.3,40.3,19.51,58.68,9.64,11.64,19.83,17.72,27.28,16.28,3.89-.76,6.74-3.62,8.22-8.28.79-2.47,1.16-5.32,1.16-8.45Z"></path>
            <path class="cls-1 svg-elem-11" d="m20.35,26.03c0-4.7.72-8.89,2.25-12.25,2.07-4.56,5.45-7.22,9.77-7.69,8.33-.91,18.96,6.08,28.43,18.7,14.79,19.7,21.79,46.82,15.6,60.44-2.07,4.56-5.45,7.22-9.77,7.69-8.33.91-18.96-6.08-28.43-18.7-11.14-14.83-17.86-33.87-17.86-48.19Zm58.03,46.92c0-14.24-6.7-33.21-17.8-48-9.41-12.53-19.94-19.48-28.17-18.58-4.22.46-7.52,3.06-9.54,7.52-6.15,13.54.84,40.52,15.57,60.15,9.41,12.53,19.94,19.48,28.17,18.58,4.22-.46,7.52-3.06,9.54-7.52,1.51-3.34,2.23-7.49,2.23-12.15Z"></path>
            <path class="cls-1 svg-elem-12" d="m19.96,28.03c0-6.53,1.22-12.26,3.8-16.47,2.66-4.35,6.56-6.7,11.26-6.8,9.11-.2,19.96,7.68,29.04,21.1,14.15,20.92,19.16,48.54,11.17,61.58-2.66,4.35-6.56,6.7-11.26,6.8-9.11.2-19.96-7.68-29.04-21.1-9.58-14.17-14.97-31.41-14.97-45.11Zm58.79,42.93c0-13.64-5.38-30.82-14.93-44.94-9.02-13.33-19.78-21.17-28.79-20.97-4.6.1-8.41,2.41-11.02,6.67-7.94,12.95-2.93,40.43,11.16,61.26,9.02,13.33,19.78,21.17,28.79,20.97,4.6-.1,8.41-2.41,11.02-6.67,2.56-4.17,3.77-9.85,3.77-16.32Z"></path>
            <path class="cls-1 svg-elem-13" d="m19.33,30.56c0-8.64,1.92-16.14,5.91-21.1,3.32-4.13,7.8-6.13,12.95-5.78,9.84.66,20.8,9.46,29.3,23.54,13.34,22.08,16.15,50.03,6.26,62.33-3.32,4.13-7.8,6.13-12.95,5.78-9.84-.66-20.8-9.46-29.3-23.54-7.96-13.17-12.17-28.44-12.17-41.23Zm60.05,37.88c0-12.73-4.2-27.94-12.14-41.08C58.79,13.37,47.92,4.62,38.17,3.97c-5.05-.34-9.44,1.62-12.7,5.68-9.82,12.2-7,40.02,6.28,61.99,8.46,14,19.33,22.74,29.07,23.4,5.05.34,9.44-1.62,12.7-5.68,3.95-4.91,5.86-12.35,5.86-20.92Z"></path>
            <path class="cls-1 svg-elem-14" d="m18.39,33.51c0-10.97,2.87-20.48,8.65-26.02,4.07-3.9,9.21-5.48,14.88-4.58,10.48,1.67,21.38,11.37,29.16,25.95,12.36,23.16,12.75,51.26.88,62.64-4.07,3.9-9.21,5.48-14.88,4.58-10.48-1.67-21.38-11.37-29.16-25.95-6.34-11.88-9.53-25.07-9.53-36.63Zm61.95,31.98c0-11.51-3.18-24.65-9.51-36.5-7.74-14.5-18.56-24.14-28.95-25.8-5.57-.89-10.64.67-14.64,4.5-11.79,11.3-11.37,39.25.93,62.3,7.74,14.5,18.56,24.14,28.95,25.8,5.57.89,10.64-.67,14.64-4.5,5.73-5.49,8.57-14.92,8.57-25.8Z"></path>
            <path class="cls-1 svg-elem-15" d="m17.06,36.7c0-13.44,4.14-25.12,12.11-31.01,4.93-3.64,10.84-4.72,17.09-3.13,10.98,2.8,21.65,13.36,28.55,28.25,11.19,24.15,8.95,52.18-4.98,62.49h0c-4.93,3.64-10.84,4.72-17.09,3.13-10.98-2.8-21.65-13.36-28.55-28.25-4.79-10.35-7.12-21.41-7.12-31.48Zm64.59,25.62c0-10.03-2.32-21.06-7.1-31.38-6.86-14.81-17.46-25.31-28.35-28.09-6.17-1.58-12-.51-16.85,3.08-13.83,10.23-16.03,38.1-4.89,62.13,6.86,14.81,17.46,25.31,28.35,28.09,6.17,1.58,12,.51,16.85-3.08,7.89-5.84,12-17.42,12-30.76Z"></path>
            <path class="cls-1 svg-elem-16" d="m15.32,39.88c0-15.94,5.81-29.87,16.33-35.8,5.92-3.34,12.7-3.8,19.6-1.34,11.28,4.01,21.53,15.36,27.41,30.35,9.83,25.04,4.75,52.77-11.32,61.82-5.92,3.34-12.7,3.8-19.6,1.34-11.28-4.01-21.53-15.36-27.41-30.35-3.39-8.65-5.01-17.62-5.01-26.03Zm68.07,19.25c0-8.38-1.61-17.32-5-25.94-5.86-14.91-16.04-26.2-27.24-30.18-6.82-2.43-13.52-1.97-19.36,1.32-15.95,8.99-20.97,36.56-11.19,61.47,5.85,14.91,16.04,26.2,27.24,30.18,6.82,2.43,13.52,1.97,19.36-1.32h0c10.43-5.88,16.18-19.7,16.18-35.53Z"></path>
            <path class="cls-1 svg-elem-17" d="m13.14,42.84c0-18.4,7.94-34.54,21.34-40.14C41.56-.25,49.3.04,56.88,3.54c11.34,5.24,20.97,17.26,25.74,32.15,8.27,25.8.15,52.99-18.11,60.61-7.07,2.95-14.82,2.66-22.4-.84-11.34-5.24-20.97-17.26-25.74-32.15-2.2-6.86-3.24-13.81-3.24-20.47Zm72.44,13.34c0-6.63-1.04-13.56-3.23-20.4-4.75-14.82-14.32-26.77-25.59-31.98C49.26.34,41.59.05,34.6,2.97c-13.29,5.55-21.17,21.58-21.17,39.86,0,6.63,1.04,13.56,3.23,20.4,4.75,14.82,14.32,26.77,25.59,31.98,7.5,3.46,15.17,3.75,22.16.83,13.29-5.55,21.17-21.58,21.17-39.86Z"></path>
            <path class="cls-1 svg-elem-18" d="m10.5,45.37c0-20.76,10.6-38.95,27.18-43.8,8.4-2.46,17.19-1.25,25.43,3.49,11.31,6.51,19.9,18.75,23.55,33.57,6.51,26.43-4.85,52.81-25.34,58.8-8.4,2.46-17.19,1.25-25.43-3.49-11.31-6.51-19.9-18.75-23.55-33.57-1.24-5.05-1.84-10.1-1.84-15Zm77.71,8.27c0-4.88-.59-9.91-1.83-14.94-3.64-14.75-12.17-26.92-23.41-33.39C54.8.61,46.08-.59,37.76,1.85,21.32,6.66,10.79,24.73,10.79,45.37c0,4.88.59,9.91,1.83,14.94,3.64,14.75,12.17,26.92,23.41,33.39,8.17,4.7,16.88,5.9,25.21,3.46,16.45-4.81,26.97-22.88,26.97-43.52Z"></path>
            <path class="cls-1 svg-elem-19" d="m7.42,47.36c0-23.02,13.85-42.96,33.82-46.64,9.76-1.8,19.93.56,28.62,6.65,10.84,7.59,18.46,20.18,20.89,34.54,4.55,26.9-10.25,52.18-33,56.37-9.76,1.8-19.93-.56-28.62-6.65-10.84-7.59-18.46-20.18-20.89-34.54-.55-3.28-.82-6.54-.82-9.73Zm83.87,4.28c0-3.18-.27-6.42-.82-9.68-2.42-14.28-9.99-26.8-20.77-34.35C61.07,1.57,50.99-.78,41.3,1.01,21.47,4.66,7.71,24.48,7.71,47.36c0,3.18.27,6.42.82,9.68,2.42,14.28,9.99,26.8,20.77,34.35,8.63,6.04,18.72,8.38,28.4,6.6h0c19.83-3.65,33.59-23.48,33.59-46.35Z"></path>
            <path class="cls-1 svg-elem-20" d="m3.91,48.75C3.91,23.56,21.62,2.25,45.19.19c25.02-2.19,47.31,18.15,49.69,45.34,1.15,13.17-2.48,25.96-10.24,36.03-7.76,10.07-18.7,16.19-30.83,17.26-12.12,1.06-23.97-3.07-33.36-11.64-9.38-8.56-15.19-20.53-16.34-33.7-.14-1.58-.21-3.16-.21-4.72Zm90.88,1.56c0-1.57-.07-3.16-.21-4.75C92.23,18.52,70.07-1.7,45.21.48,21.8,2.53,4.21,23.71,4.21,48.75c0,1.55.07,3.12.21,4.7,1.15,13.1,6.91,25,16.24,33.51,9.33,8.51,21.09,12.62,33.14,11.57s22.92-7.14,30.62-17.14c6.77-8.79,10.39-19.68,10.39-31.08Z"></path>
            <path class="cls-1 svg-elem-21" d="m0,49.5C0,22.21,22.21,0,49.5,0c27.29,0,49.5,22.21,49.5,49.5,0,27.3-22.21,49.5-49.5,49.5C22.21,99,0,76.8,0,49.5Zm98.71,0c0-27.13-22.08-49.21-49.21-49.21-27.14,0-49.21,22.08-49.21,49.21s22.08,49.21,49.21,49.21c27.13,0,49.21-22.08,49.21-49.21Z"></path>
        </g>
    </g>
</svg>
